<?xml version="1.0" standalone="no"?>
<!DOCTYPE svg PUBLIC "-//W3C//DTD SVG 20010904//EN"
 "http://www.w3.org/TR/2001/REC-SVG-20010904/DTD/svg10.dtd">
<svg version="1.0" xmlns="http://www.w3.org/2000/svg"
 width="1024.000000pt" height="1024.000000pt" viewBox="0 0 1024.000000 1024.000000"
 preserveAspectRatio="xMidYMid meet">

<g transform="translate(0.000000,1024.000000) scale(0.100000,-0.100000)"
fill="#000000" stroke="none">
<path d="M0 5120 l0 -5120 5120 0 5120 0 0 5120 0 5120 -5120 0 -5120 0 0
-5120z m6780 936 c-8 -7 -80 -62 -160 -122 -80 -59 -248 -189 -374 -288 -126
-100 -285 -225 -355 -280 -69 -54 -176 -138 -237 -187 -62 -49 -115 -89 -119
-89 -6 0 -115 221 -115 233 0 3 82 67 183 143 100 76 281 215 402 309 121 95
244 188 272 208 92 62 191 83 403 86 97 1 112 -1 100 -13z m-3270 -349 c0 -2
-25 -64 -56 -138 -31 -73 -114 -276 -185 -449 -72 -173 -141 -334 -155 -358
-55 -94 -115 -144 -214 -178 -51 -17 -88 -19 -465 -19 -459 0 -462 0 -506 72
-34 55 -23 111 60 318 117 291 162 354 296 417 l70 32 233 4 c127 3 232 1 232
-4 0 -4 -10 -34 -22 -66 l-23 -58 -73 0 c-104 0 -132 -16 -176 -99 -37 -72
-149 -354 -160 -408 -6 -27 -3 -37 18 -58 22 -22 33 -25 98 -25 173 0 186 15
342 401 65 162 148 367 184 457 l65 162 219 0 c120 0 218 -1 218 -3z m1081
-324 c19 -13 44 -38 54 -56 60 -112 -67 -363 -219 -433 -78 -36 -146 -44 -364
-44 l-193 0 7 23 c4 12 16 41 28 65 l21 43 78 3 c98 4 121 19 165 108 42 85
53 156 27 174 -27 20 -216 19 -255 -1 -40 -21 -58 -54 -149 -283 -85 -212 -96
-263 -62 -282 13 -6 141 -10 347 -10 l327 0 -24 -26 c-13 -14 -57 -42 -98 -62
l-75 -37 -408 -3 c-388 -3 -410 -2 -453 17 -56 25 -85 70 -85 133 0 35 20 97
84 257 47 115 94 227 105 248 45 87 154 165 258 183 26 4 228 7 448 7 395 -2
400 -2 436 -24z m600 0 c65 -29 78 -47 204 -288 37 -71 84 -159 103 -195 19
-36 64 -119 99 -185 36 -66 69 -124 74 -129 5 -6 9 -14 9 -18 0 -4 -82 -8
-183 -8 -248 0 -298 16 -360 116 -22 36 -375 701 -386 727 -2 5 79 8 195 5
176 -3 204 -6 245 -25z m1913 3 c48 -24 76 -69 76 -123 0 -45 -138 -408 -186
-490 -57 -99 -177 -181 -293 -203 -77 -14 -769 -13 -812 1 -80 27 -122 108
-100 194 15 59 154 396 186 451 32 54 112 125 171 154 73 34 140 38 544 37
348 -2 378 -3 414 -21z m1312 13 c29 -8 54 -23 74 -46 57 -64 43 -123 -120
-518 -34 -82 -73 -178 -87 -212 l-25 -63 -218 0 -217 0 124 309 c129 322 144
370 123 396 -20 24 -215 21 -257 -4 -45 -28 -69 -75 -183 -363 -136 -345 -128
-338 -408 -338 l-163 0 7 23 c7 22 109 274 189 467 24 58 67 162 95 233 l52
127 485 0 c324 0 499 -4 529 -11z m-3464 -634 l57 -114 -42 -34 c-23 -18 -82
-64 -132 -102 -87 -67 -252 -196 -405 -318 -127 -102 -220 -130 -465 -143
l-140 -7 70 56 c39 31 124 98 190 149 149 115 543 423 690 540 61 49 112 88
115 88 3 0 31 -52 62 -115z"/>
<path d="M6454 5261 c-35 -22 -69 -85 -129 -246 -20 -55 -50 -133 -66 -173
-53 -134 -40 -152 110 -152 110 0 139 9 174 56 25 34 187 440 187 470 0 13 -9
33 -20 44 -17 17 -33 20 -122 20 -84 0 -109 -4 -134 -19z"/>
</g>
</svg>
